<svg viewBox="0 0 33.9411 33.9411" xmlns="http://www.w3.org/2000/svg" xmlns:xlink="http://www.w3.org/1999/xlink" width="33.941101" height="33.941132" fill="none">
	<defs>
		<clipPath id="clipPath_1">
			<rect width="24.000000" height="24.000000" x="0.000000" y="0.000000" fill="rgb(255,255,255)" transform="matrix(0.707107,-0.707107,0.707107,0.707107,0,16.9706)" />
		</clipPath>
	</defs>
	<rect id="容器 15" width="24.000000" height="24.000000" x="0.000000" y="0.000000" transform="matrix(0.707107,-0.707107,0.707107,0.707107,0,16.9706)" />
	<g id="Compass 1" clip-path="url(#clipPath_1)" customFrame="url(#clipPath_1)">
		<rect id="Compass 1" width="24.000000" height="24.000000" x="0.000000" y="0.000000" transform="matrix(0.707107,-0.707107,0.707107,0.707107,0,16.9706)" />
		<g id="组合 24">
			<path id="矢量 35" d="M12 0C5.37267 0 0 5.37267 0 12C0 18.6273 5.37267 24 12 24C18.6273 24 24 18.6273 24 12C24 5.37267 18.6273 0 12 0ZM12 15.0638C10.308 15.0638 8.93614 13.6922 8.93614 12C8.93614 10.308 10.308 8.93617 12 8.93617C13.692 8.93617 15.0638 10.308 15.0638 12C15.0638 13.6922 13.692 15.0638 12 15.0638M12 9.95743C10.8719 9.95743 9.95739 10.872 9.95739 12C9.95739 13.128 10.8719 14.0426 12 14.0426C13.128 14.0426 14.0425 13.128 14.0425 12C14.0425 10.872 13.128 9.95743 12 9.95743Z" fill="rgb(255,255,255)" fill-rule="nonzero" transform="matrix(0.707107,-0.707107,0.707107,0.707107,0,16.9706)" />
			<g id="组合 25">
				<path id="矢量 36" d="M16.0669 1.68189C16.0706 1.68518 16.0739 1.68893 16.0782 1.69222C16.0762 1.69074 16.0745 1.68902 16.073 1.68706C16.0711 1.68518 16.0688 1.68383 16.0669 1.68189M6.23997 5.76004C6.23997 4.80054 6.47812 3.89724 6.89299 3.10225C4.29422 7.30552 0 17.76 0 17.76C0 17.76 10.4536 13.4659 14.6579 10.8671C13.8624 11.2825 12.9597 11.5201 12.0001 11.5201C8.81903 11.5201 6.23997 8.94148 6.23997 5.76004ZM12.5686 0.0286142C12.3796 0.00983786 12.1901 0.000299781 12.0001 0C11.8101 0.000297728 11.6206 0.0098358 11.4315 0.0286142C11.8105 -0.00848474 12.1896 -0.00848474 12.5686 0.0286142ZM7.92703 1.68706C7.92567 1.68848 7.9238 1.6908 7.92186 1.69268L7.93265 1.68189C7.93078 1.68383 7.92897 1.68518 7.92703 1.68706Z" fill="rgb(238,106,86)" fill-rule="nonzero" transform="matrix(0.707107,-0.707107,0.707107,0.707107,4.41235,21.3829)" />
				<path id="矢量 37" d="M17.6334 0C17.6334 0 7.26044 4.26515 3.02526 6.86914C3.80901 6.46977 4.69359 6.24002 5.63345 6.24002C8.81483 6.24002 11.3934 8.81908 11.3934 12C11.3943 12.9635 11.167 13.8697 10.7114 14.7187C13.3064 10.5428 17.6334 0 17.6334 0M0.288722 14.146L0.284975 14.1381L0.288722 14.146ZM5.63345 17.7601C3.21135 17.7601 1.139 16.2644 0.288721 14.146C0.568078 14.852 0.989471 15.5153 1.56039 16.0866C3.80998 18.338 7.45693 18.338 9.70638 16.0866C9.79591 15.9972 9.89299 15.8828 9.99285 15.758C8.93672 16.982 7.37722 17.7601 5.63345 17.7601M0.136868 13.7166C0.131249 13.6978 0.124726 13.6796 0.119042 13.6609C0.124726 13.6796 0.131249 13.6978 0.136868 13.7166ZM0.119042 13.6609C0.0730015 13.5081 0.033321 13.3537 0 13.1977C0.0328123 13.3538 0.0735692 13.5076 0.119042 13.6609Z" fill="rgb(134,174,221)" fill-rule="nonzero" transform="matrix(0.707107,-0.707107,0.707107,0.707107,4.50183,12.4687)" />
				<path id="矢量 39" d="M5.76005 0.517957L5.76005 0.960019L6.37406 0.960019C6.18387 0.792557 5.9792 0.645203 5.76005 0.517957ZM3.84001 4.80003L4.80003 4.80003L4.80003 3.84001L3.84001 3.84001L3.84001 4.80003ZM6.72008 1.30597L6.72008 1.91997L7.16207 1.91997C7.03496 1.70075 6.88762 1.49608 6.72008 1.30597ZM7.68003 3.84001C7.68003 3.50762 7.63359 3.18706 7.55446 2.87999L6.72007 2.87999L6.72007 3.84001L7.68003 3.84001ZM2.87999 3.84001L3.84001 3.84001L3.84001 2.87999L2.87993 2.87999L2.87993 3.84001L2.87999 3.84001ZM1.91998 7.16206L1.91998 6.72006L1.30591 6.72006C1.49613 6.88749 1.70082 7.03482 1.91998 7.16206ZM2.87999 7.55445C3.187 7.63364 3.50769 7.68002 3.84008 7.68002L3.84008 6.72006L2.87999 6.72006L2.87999 7.55445ZM4.80003 7.55445C5.13799 7.46761 5.45797 7.33681 5.75999 7.16206L5.75999 6.72006L4.80003 6.72006L4.80003 7.55445ZM7.16207 5.76004C7.33681 5.45802 7.46761 5.13804 7.55446 4.80009L6.72007 4.80009L6.72007 5.76004L7.16207 5.76004ZM2.87999 0.125629C2.54203 0.212423 2.22205 0.343199 1.92004 0.517956L1.92004 0.960017L2.87999 0.960017L2.87999 0.125629ZM4.80003 0.125629C4.49296 0.0463763 4.17233 0 3.84001 0L3.84001 0.960017L4.80003 0.960017L4.80003 0.125629ZM0.517954 1.91997C0.343218 2.22199 0.212442 2.54197 0.125627 2.87992L0.960016 2.87992L0.960016 1.91997L0.517954 1.91997ZM0 3.84001C0 4.17239 0.046441 4.49302 0.12563 4.80009L0.960019 4.80009L0.960019 3.84001L0 3.84001ZM0.960019 6.37398L0.960019 5.75998L0.517957 5.75998C0.645044 5.97924 0.792398 6.18391 0.960019 6.37398ZM5.76005 0.960019L4.8001 0.960019L4.8001 1.91997L5.76005 1.91997L5.76005 0.960019ZM0.960018 5.76005L1.91997 5.76005L1.91997 4.80009L0.960018 4.80009L0.960018 5.76005ZM1.91997 6.72006L2.87993 6.72006L2.87993 5.76005L1.91997 5.76005L1.91997 6.72006ZM1.91997 2.87993L0.960018 2.87993L0.960018 3.84001L1.91997 3.84001L1.91997 2.87993L1.91997 2.87993ZM1.91997 0.96002L1.3059 0.96002C1.18311 1.06784 1.06781 1.18315 0.960018 1.30597L0.960018 1.91997L1.91997 1.91997L1.91997 0.960022L1.91997 0.96002ZM5.76005 4.80003L6.72007 4.80003L6.72007 3.84001L5.76005 3.84001L5.76005 4.80003ZM3.84001 6.72006L4.80003 6.72006L4.80003 5.76004L3.84001 5.76004L3.84001 6.72006ZM5.76005 6.72006L6.37406 6.72006C6.49688 6.61221 6.61222 6.49687 6.72007 6.37405L6.72007 5.76005L5.76005 5.76005L5.76005 6.72006L5.76005 6.72006ZM1.91998 4.80003L2.87993 4.80003L2.87993 3.84001L1.91998 3.84001L1.91998 4.80003ZM4.80003 1.91997L3.84001 1.91997L3.84001 2.87993L4.80003 2.87993L4.80003 1.91997ZM3.84001 0.960019L2.87993 0.960019L2.87993 1.91997L3.84001 1.91997L3.84001 0.960019ZM2.88 5.76005L3.84001 5.76005L3.84001 4.80009L2.87993 4.80009L2.87993 5.76005L2.88 5.76005ZM2.88 1.91997L1.92004 1.91997L1.92004 2.87993L2.88 2.87993L2.88 1.91997ZM4.80003 5.76005L5.75999 5.76005L5.75999 4.80009L4.80003 4.80009L4.80003 5.76005ZM6.72007 1.91997L5.76005 1.91997L5.76005 2.87993L6.72007 2.87993L6.72007 1.91997ZM4.80003 3.84001L5.75999 3.84001L5.75999 2.87999L4.80003 2.87999L4.80003 3.84001Z" fill="rgb(0,0,0)" fill-rule="nonzero" transform="matrix(0.707107,-0.707107,0.707107,0.707107,11.54,16.9705)" />
				<path id="矢量 40" d="M5.76005 0C2.57906 0 0 2.57906 0 5.75998C0 8.94102 2.57906 11.52 5.76005 11.52C8.94104 11.52 11.52 8.94096 11.52 5.75998C11.5201 2.57906 8.94104 0 5.76005 0M5.76005 9.60005C3.63933 9.60005 1.91997 7.88063 1.91997 5.75998C1.91997 3.63939 3.63933 1.91997 5.76005 1.91997C7.88065 1.91997 9.60007 3.63939 9.60007 5.75998C9.60007 7.88063 7.88065 9.60005 5.76005 9.60005Z" fill="rgb(0,0,0)" fill-rule="nonzero" transform="matrix(0.707107,-0.707107,0.707107,0.707107,8.82483,16.9705)" />
			</g>
		</g>
	</g>
</svg>
